<?xml version="1.0" encoding="UTF-8"?>
<svg version="1.1" xmlns="http://www.w3.org/2000/svg" width="1536" height="345">
<path d="M0 0 C1.03433167 -0.0071553 2.06866333 -0.01431061 3.13433838 -0.02168274 C4.25857208 -0.02437164 5.38280579 -0.02706055 6.54110718 -0.02983093 C8.32986267 -0.03968773 8.32986267 -0.03968773 10.15475464 -0.04974365 C14.1004269 -0.06945031 18.04608579 -0.08114076 21.99179077 -0.09111023 C23.35514724 -0.095161 24.71850352 -0.09927802 26.08185959 -0.10346031 C32.49069489 -0.12249743 38.8995188 -0.13673003 45.30837691 -0.14507228 C52.68201858 -0.15483132 60.05535901 -0.18112183 67.42889464 -0.22157317 C73.14377222 -0.25183829 78.85856396 -0.26655105 84.57352006 -0.26985329 C87.97939289 -0.27219246 91.38494338 -0.28100294 94.79072952 -0.30631447 C98.59838869 -0.33074703 102.40526808 -0.32973259 106.21298218 -0.32279968 C107.3250705 -0.33560974 108.43715881 -0.3484198 109.58294678 -0.36161804 C123.7681823 -0.26792042 132.98698895 5.40952934 142.89022827 15.08467102 C145.90965537 18.18666058 148.76488754 21.40023076 151.58554077 24.68232727 C154.57866164 28.0670213 157.67350226 31.35266261 160.76522827 34.64717102 C164.96304744 39.12440736 169.13949789 43.60275461 173.12460327 48.27217102 C174.3722831 49.69809083 175.66142051 51.08785507 176.96835327 52.45967102 C187.93611402 64.08113937 192.90308411 75.78392096 192.92636108 91.6776886 C192.93132599 92.50145493 192.93629089 93.32522125 192.94140625 94.1739502 C192.95592596 96.87987627 192.96281233 99.58574375 192.96835327 102.29170227 C192.97118065 103.22160162 192.97400803 104.15150097 192.97692108 105.10957909 C192.99187149 110.02942053 193.00112747 114.94923295 193.00546265 119.86909485 C193.01094494 124.92935433 193.03497987 129.98934444 193.0634346 135.04951954 C193.08213097 138.96079263 193.08727027 142.87200167 193.08879852 146.78331566 C193.09180915 148.64788474 193.09978342 150.51245313 193.1129837 152.37697792 C193.20901322 166.9817351 192.29319156 179.59977304 182.06600952 191.04951477 C180.90043954 192.20460772 179.71906094 193.34394942 178.52304077 194.46748352 C176.79589654 196.11786579 175.25361941 197.8313035 173.70272827 199.64717102 C169.45183124 204.59189262 164.95866156 209.30993692 160.47592163 214.0436554 C159.88303345 214.67336243 159.29014526 215.30306946 158.67929077 215.95185852 C158.14255737 216.51888489 157.60582397 217.08591125 157.05282593 217.67012024 C155.6663894 219.13599081 155.6663894 219.13599081 154.76522827 221.14717102 C154.10522827 221.14717102 153.44522827 221.14717102 152.76522827 221.14717102 C152.51128296 221.72982727 152.25733765 222.31248352 151.99569702 222.91279602 C150.63202494 225.38905135 149.12297624 226.95237728 147.07772827 228.89717102 C144.48601447 231.42420748 141.99436776 233.96017986 139.64022827 236.70967102 C138.3517272 238.19159605 137.05935362 239.67015497 135.76522827 241.14717102 C135.24589722 241.74110657 134.72656616 242.33504211 134.1914978 242.94697571 C132.37696827 245.0068204 130.54166237 247.04660293 128.70272827 249.08467102 C128.11282104 249.76022034 127.52291382 250.43576965 126.91513062 251.13179016 C124.05890016 254.26614196 122.50738456 255.94369017 118.33163452 257.08857727 C117.06126343 257.11758118 117.06126343 257.11758118 115.76522827 257.14717102 C113.31943252 253.4784774 113.45913384 250.68883492 113.46444702 246.44404602 C113.4601619 245.68803101 113.45587677 244.93201599 113.45146179 244.15309143 C113.44572048 242.55265808 113.44521678 240.95219863 113.44955444 239.35176086 C113.45269899 236.91982065 113.42930836 234.48911572 113.40390015 232.05732727 C113.40162537 230.49873504 113.40092448 228.94013957 113.40194702 227.38154602 C113.39273727 226.66150391 113.38352753 225.94146179 113.3740387 225.19960022 C113.4372485 218.19225398 115.50575049 213.02117333 120.32772827 207.89717102 C122.39154846 205.67800952 124.07250007 203.68626333 125.76522827 201.14717102 C126.42522827 201.14717102 127.08522827 201.14717102 127.76522827 201.14717102 C127.99983765 200.59545227 128.23444702 200.04373352 128.47616577 199.47529602 C130.09165781 196.55761949 132.15582935 194.37368747 134.39022827 191.89717102 C138.35529537 187.29714419 141.46625356 182.56792255 144.20272827 177.14717102 C144.51999878 176.53196594 144.83726929 175.91676086 145.16415405 175.28291321 C149.87014076 165.52740024 151.2282726 155.4501558 151.19882202 144.72529602 C151.20406387 143.58163574 151.20930573 142.43797546 151.21470642 141.25965881 C151.22108606 138.85628566 151.21984279 136.45288111 151.21127319 134.04951477 C151.20278175 130.42002774 151.23155538 126.79212757 151.26327515 123.16279602 C151.31258661 106.9166197 150.71478672 91.33252557 141.76522827 77.14717102 C141.10522827 76.48717102 140.44522827 75.82717102 139.76522827 75.14717102 C139.18257202 74.08111633 138.59991577 73.01506165 137.99960327 71.91670227 C135.82767195 68.02918697 133.10691486 65.01156157 130.01522827 61.83467102 C124.76522827 56.40432751 124.76522827 56.40432751 124.76522827 54.14717102 C124.20964233 53.92158508 123.6540564 53.69599915 123.08163452 53.46357727 C120.08707174 51.76177684 118.07714822 49.57369344 115.70272827 47.08467102 C112.24822568 43.31763097 112.24822568 43.31763097 107.76522827 41.14717102 C105.75919417 42.01141594 105.75919417 42.01141594 103.70272827 43.42842102 C102.9105188 43.93792297 102.11830933 44.44742493 101.30209351 44.97236633 C100.46492798 45.52505188 99.62776245 46.07773743 98.76522827 46.64717102 C97.91323853 47.19727844 97.06124878 47.74738586 96.18344116 48.31416321 C93.70460987 49.9160217 91.23404675 51.52993702 88.76522827 53.14717102 C86.58135029 54.56964141 84.39349075 55.98528149 82.20272827 57.39717102 C81.37643921 57.93857727 80.55015015 58.47998352 79.69882202 59.03779602 C77.76522827 60.14717102 77.76522827 60.14717102 75.76522827 60.14717102 C76.92328657 62.98967775 77.84238015 64.20773691 80.30795288 66.14326477 C83.85540326 70.47985985 83.46898698 74.07570915 83.39413452 79.52217102 C83.39654648 80.52425598 83.39895844 81.52634094 83.40144348 82.55879211 C83.40046571 84.67357854 83.38708889 86.78839077 83.3621521 88.9030304 C83.32784322 92.13633854 83.34149764 95.36691301 83.3609314 98.60029602 C83.35403273 100.6575993 83.34436017 102.71489553 83.33163452 104.77217102 C83.33659439 105.73687317 83.34155426 106.70157532 83.34666443 107.69551086 C83.27409834 111.83987673 83.12464732 114.49270174 81.10482788 118.17060852 C76.19939088 122.31486585 70.95677372 122.45586558 64.76913452 122.44795227 C64.01736435 122.4522374 63.26559418 122.45652252 62.49104309 122.4609375 C60.90853884 122.46665414 59.32600833 122.46720082 57.74349976 122.46284485 C55.33817215 122.45968474 52.93407607 122.48317633 50.52890015 122.50849915 C48.98397981 122.5107726 47.43905619 122.51147542 45.89413452 122.51045227 C45.18350357 122.51966202 44.47287262 122.52887177 43.7407074 122.5383606 C38.62769411 122.49158266 35.20568199 121.51886789 30.76522827 119.14717102 C27.20688565 113.80965709 27.60640724 107.92205144 27.59725952 101.67842102 C27.59226692 100.48062012 27.59226692 100.48062012 27.58717346 99.25862122 C27.58213252 97.57775953 27.57976426 95.89688792 27.57992554 94.21601868 C27.57773509 91.65514093 27.55953866 89.09469169 27.5406189 86.53388977 C27.5376851 84.89456832 27.53570021 83.25524483 27.53475952 81.61592102 C27.52757401 80.85638123 27.52038849 80.09684143 27.51298523 79.31428528 C27.5319142 74.87864822 28.00445911 71.23175712 29.76522827 67.14717102 C30.48710327 66.44592102 31.20897827 65.74467102 31.95272827 65.02217102 C32.55085327 64.40342102 33.14897827 63.78467102 33.76522827 63.14717102 C33.74318939 61.13332107 33.74318939 61.13332107 32.76522827 59.14717102 C30.92752785 57.57911731 30.92752785 57.57911731 28.57382202 56.30732727 C27.71079468 55.80137024 26.84776733 55.29541321 25.95858765 54.77412415 C25.04915405 54.25785461 24.13972046 53.74158508 23.20272827 53.20967102 C21.43022762 52.18035179 19.65808781 51.15041092 17.88632202 50.11982727 C17.02248901 49.6249884 16.15865601 49.13014954 15.26864624 48.62031555 C12.28416852 46.86408983 9.40191356 44.97490465 6.53890991 43.02778625 C4.49815082 41.85070651 4.49815082 41.85070651 0.76522827 42.14717102 C-1.36542551 43.98938945 -1.36542551 43.98938945 -2.7484436 45.53779602 C-4.47142815 47.40341923 -6.28895753 49.14316987 -8.12539673 50.89717102 C-23.67354242 65.98007983 -37.9075215 82.86842257 -38.62295532 105.62153625 C-38.64251444 107.98286723 -38.6451978 110.34438322 -38.63320923 112.70576477 C-38.6375145 114.60407799 -38.6375145 114.60407799 -38.64190674 116.54074097 C-38.6439376 119.20259672 -38.64001742 121.86361086 -38.62588501 124.52534485 C-38.6088123 127.90167561 -38.61864421 131.27728955 -38.6366024 134.65359402 C-38.65018126 137.92100821 -38.64061396 141.18834113 -38.63320923 144.45576477 C-38.63928192 145.64987473 -38.64535461 146.84398468 -38.65161133 148.07427979 C-38.47585164 169.35196436 -28.99963034 184.87749631 -14.65664673 199.91279602 C-13.71716187 200.90182922 -13.71716187 200.90182922 -12.75869751 201.9108429 C-11.52284412 203.20357923 -10.27686121 204.48673188 -9.0194397 205.75849915 C-8.15536499 206.65471985 -8.15536499 206.65471985 -7.27383423 207.56904602 C-6.76030396 208.09079407 -6.24677368 208.61254211 -5.71768188 209.15010071 C-1.49410794 214.83808801 -0.7890619 219.99009626 -0.87149048 226.85420227 C-0.87074272 228.06411079 -0.87074272 228.06411079 -0.86997986 229.29846191 C-0.87230637 230.99016302 -0.88195013 232.68186852 -0.89859009 234.37348938 C-0.92236251 236.96958523 -0.91911839 239.56466452 -0.9125061 242.1608429 C-0.91807774 243.8086355 -0.92518436 245.45642378 -0.93399048 247.10420227 C-0.93307907 247.88125015 -0.93216766 248.65829803 -0.93122864 249.45889282 C-1.00367468 254.91607398 -1.00367468 254.91607398 -3.23477173 257.14717102 C-7.14410215 257.06492704 -8.92261289 256.39982875 -11.98086548 253.92451477 C-12.86902954 252.98736633 -13.7571936 252.0502179 -14.67227173 251.08467102 C-15.14890259 250.58805969 -15.62553345 250.09144836 -16.11660767 249.57978821 C-19.39351137 246.13870653 -22.54081619 242.5886618 -25.62539673 238.97529602 C-27.26063607 237.11779114 -28.96958966 235.38111093 -30.73477173 233.64717102 C-33.02803209 231.38919159 -35.19905201 229.08720598 -37.29727173 226.64717102 C-40.7586505 222.63352732 -44.36224378 218.76462822 -47.98477173 214.89717102 C-48.89803223 213.91998108 -48.89803223 213.91998108 -49.82974243 212.92304993 C-53.30185244 209.20789409 -53.30185244 209.20789409 -56.78555298 205.50361633 C-61.94739253 200.03220554 -66.96760665 194.45588316 -71.67227173 188.58467102 C-72.45473267 187.61400696 -73.2371936 186.6433429 -74.04336548 185.64326477 C-81.36277979 174.7529073 -80.81088432 163.14278778 -80.73086548 150.55342102 C-80.73102074 148.55525154 -80.73251425 146.55708176 -80.73527527 144.55891418 C-80.73665396 140.38653627 -80.72419015 136.21450431 -80.70132446 132.04219055 C-80.67294175 126.71977064 -80.67568445 121.39792473 -80.68841457 116.07546234 C-80.69540143 111.95394572 -80.68754825 107.83255952 -80.67515755 103.71105957 C-80.67067222 101.74964907 -80.67028043 99.78822442 -80.67422295 97.82681274 C-80.69811788 75.48323111 -75.08836221 63.92578116 -59.84609985 47.85127258 C-57.14141399 44.99086238 -54.46967139 42.1002087 -51.79727173 39.20967102 C-51.07181152 38.43079529 -51.07181152 38.43079529 -50.33169556 37.63618469 C-47.96116345 35.0787112 -45.6924172 32.49065248 -43.51211548 29.76826477 C-42.76059204 28.90330383 -42.0090686 28.0383429 -41.23477173 27.14717102 C-40.57477173 27.14717102 -39.91477173 27.14717102 -39.23477173 27.14717102 C-38.85772095 26.27898743 -38.85772095 26.27898743 -38.47305298 25.39326477 C-37.07884259 22.86433425 -35.49686815 21.21286642 -33.42227173 19.20967102 C-32.3471936 18.1635968 -32.3471936 18.1635968 -31.25039673 17.09638977 C-30.58524048 16.45314758 -29.92008423 15.8099054 -29.23477173 15.14717102 C-28.38914673 14.28092102 -27.54352173 13.41467102 -26.67227173 12.52217102 C-18.61118392 4.66777778 -11.65935971 0.05563908 0 0 Z " fill="#0283FE" transform="translate(273.2347717285156,29.852828979492188)"/>
<path d="M0 0 C1.0625 1.8125 1.0625 1.8125 2 4 C1.67 4.99 1.34 5.98 1 7 C1.66 7.33 2.32 7.66 3 8 C2.34 10.31 1.68 12.62 1 15 C1.66 15.33 2.32 15.66 3 16 C2.34 18.31 1.68 20.62 1 23 C1.66 23.33 2.32 23.66 3 24 C2.83757813 24.74121094 2.67515625 25.48242188 2.5078125 26.24609375 C1.79364196 31.52546216 1.85600746 36.74142344 1.875 42.0625 C1.87113281 43.11888672 1.86726562 44.17527344 1.86328125 45.26367188 C1.86521484 46.85211914 1.86521484 46.85211914 1.8671875 48.47265625 C1.86887939 49.88430054 1.86887939 49.88430054 1.87060547 51.32446289 C2.06674905 56.89605083 2.54505077 62.44433384 3 68 C11.70116929 68.02314169 20.40232803 68.04092443 29.10352135 68.05181217 C33.14356954 68.05703699 37.18359672 68.06412739 41.22363281 68.07543945 C45.120441 68.08628254 49.01722895 68.09227987 52.91405106 68.09487724 C54.40284163 68.09672892 55.89163107 68.10034463 57.38041306 68.10573006 C59.46115285 68.11295934 61.54180832 68.11399014 63.62255859 68.11352539 C64.80836517 68.115746 65.99417175 68.11796661 67.21591187 68.12025452 C69.9569165 68.19162489 69.9569165 68.19162489 72 67 C71.7834375 65.515 71.7834375 65.515 71.5625 64 C71.47355469 63.36320312 71.38460938 62.72640625 71.29296875 62.0703125 C71.09744641 60.68862131 70.8916836 59.30834108 70.67578125 57.9296875 C69.88497453 52.52755326 69.88497453 52.52755326 70.47045898 49.84228516 C71.22866242 45.77266582 71.12239803 41.77874567 71.09765625 37.6484375 C71.0962413 36.75258942 71.09482635 35.85674133 71.09336853 34.93374634 C71.08778889 32.08079639 71.07524916 29.22792603 71.0625 26.375 C71.05748156 24.44791781 71.05291925 22.52083438 71.04882812 20.59375 C71.0390118 16.35702273 71.02481352 12.12033621 71.00672913 7.88363647 C71.0009137 6.25576649 71 4.62788037 71 3 C72 2 72 2 75.41821289 1.88647461 C76.93636988 1.88663372 78.45453229 1.89232774 79.97265625 1.90234375 C80.77029892 1.9037587 81.56794159 1.90517365 82.38975525 1.90663147 C84.94737435 1.91224684 87.50490718 1.92480188 90.0625 1.9375 C91.79231645 1.94251302 93.52213426 1.94707627 95.25195312 1.95117188 C99.50133553 1.96222125 103.75065312 1.97949614 108 2 C108.02332704 23.10490368 108.04097821 44.20980525 108.05181217 65.3147192 C108.05697554 75.11338163 108.06401902 84.91203606 108.07543945 94.71069336 C108.08538503 103.24798655 108.09185313 111.78527395 108.09408849 120.32257277 C108.09539582 124.84589928 108.09848302 129.36920922 108.10573006 133.89253044 C108.11248829 138.14497932 108.11461737 142.39740473 108.11310768 146.64985847 C108.1133841 148.21523287 108.11539039 149.78060801 108.11920547 151.34597778 C108.12413967 153.47388093 108.12299933 155.60169401 108.12025452 157.729599 C108.12163721 159.52018187 108.12163721 159.52018187 108.12304783 161.34693813 C108 164 108 164 107 165 C104.3337397 165.08855161 101.69352886 165.11524673 99.02734375 165.09765625 C98.22970108 165.0962413 97.43205841 165.09482635 96.61024475 165.09336853 C94.05262565 165.08775316 91.49509282 165.07519812 88.9375 165.0625 C87.20768355 165.05748698 85.47786574 165.05292373 83.74804688 165.04882812 C79.49866447 165.03777875 75.24934688 165.02050386 71 165 C71.00222061 164.41562164 71.00444122 163.83124329 71.00672913 163.22915649 C71.02880388 157.16254282 71.0439158 151.09594051 71.05493164 145.02929688 C71.05996926 142.76334164 71.06679952 140.49738967 71.07543945 138.23144531 C71.08752996 134.97980953 71.09323392 131.72821661 71.09765625 128.4765625 C71.10281754 127.45881744 71.10797882 126.44107239 71.11329651 125.39248657 C71.11340981 123.98125015 71.11340981 123.98125015 71.11352539 122.54150391 C71.115746 121.71099518 71.11796661 120.88048645 71.12025452 120.02481079 C71.12909182 117.93035036 71.12909182 117.93035036 70 116 C70.29868656 113.99453311 70.63371323 111.99422795 71 110 C71 109.01 71 108.02 71 107 C71 106.01 71 105.02 71 104 C69.54166642 102.37485532 69.54166642 102.37485532 68 101 C68 100.67 68 100.34 68 100 C61.73 100 55.46 100 49 100 C49 100.33 49 100.66 49 101 C47.35 101 45.7 101 44 101 C44 100.67 44 100.34 44 100 C30.47 100 16.94 100 3 100 C3.01160156 104.35703125 3.02320313 108.7140625 3.03515625 113.203125 C3.0415881 116.67920401 3.0470106 120.15528134 3.05175018 123.63136292 C3.05702877 127.29966426 3.06408189 130.96794248 3.07543945 134.63623047 C3.0863118 138.16995218 3.09228607 141.70365146 3.09487724 145.23738861 C3.09762169 147.24039958 3.10542683 149.24340154 3.11329651 151.24639893 C3.11337204 152.46736267 3.11344757 153.68832642 3.11352539 154.94628906 C3.115746 156.02106506 3.11796661 157.09584106 3.12025452 158.20318604 C3 161 3 161 2 165 C-8.23 165 -18.46 165 -29 165 C-29 165.66 -29 166.32 -29 167 C-31.375 167.1875 -31.375 167.1875 -34 167 C-36.29013653 163.5647952 -36.17842973 162.014669 -36 158 C-35.67 158 -35.34 158 -35 158 C-35.00222061 157.19601776 -35.00444122 156.39203552 -35.00672913 155.56369019 C-35.03442375 145.00080242 -35.05205812 134.43791833 -35.0625 123.875 C-35.06335602 123.01534386 -35.06421204 122.15568771 -35.06509399 121.26998138 C-35.08998248 92.88491279 -34.89213806 64.50731657 -34.5 36.125 C-34.48804218 35.25905968 -34.47608437 34.39311935 -34.46376419 33.50093842 C-34.31797194 23.0004896 -34.16361946 12.50018678 -34 2 C-32.50835327 1.96241577 -32.50835327 1.96241577 -30.98657227 1.92407227 C-27.30951253 1.83015118 -23.6326485 1.72989381 -19.95581055 1.62768555 C-18.362107 1.58427854 -16.7683552 1.54260781 -15.17456055 1.50268555 C-12.88836092 1.44512193 -10.60240551 1.38138851 -8.31640625 1.31640625 C-7.2413961 1.29133751 -7.2413961 1.29133751 -6.14466858 1.26576233 C-2.78472618 1.44981346 -2.78472618 1.44981346 0 0 Z M-35 161 C-34 163 -34 163 -34 163 Z " fill="#000000" transform="translate(997,91)"/>
<path d="M0 0 C0.33 0 0.66 0 1 0 C1.33 22.44 1.66 44.88 2 68 C36.155 68.495 36.155 68.495 71 69 C71 46.89 71 24.78 71 2 C82.88 2 94.76 2 107 2 C107 55.79 107 109.58 107 165 C95.12 165 83.24 165 71 165 C71 143.22 71 121.44 71 99 C48.23 99.33 25.46 99.66 2 100 C2 121.45 2 142.9 2 165 C-10.21 165 -22.42 165 -35 165 C-35 111.21 -35 57.42 -35 2 C-23.45 2 -11.9 2 0 2 C0 1.34 0 0.68 0 0 Z " fill="#000000" transform="translate(568,91)"/>
<path d="M0 0 C1.3912047 0.00025098 2.78241565 0.0058083 4.17358398 0.01586914 C4.82129761 0.01687622 5.46901123 0.0178833 6.13635254 0.0189209 C8.56414552 0.02416696 10.99191334 0.03812814 13.41967773 0.05102539 C21.55624023 0.08196289 21.55624023 0.08196289 29.85717773 0.11352539 C29.85717773 20.90352539 29.85717773 41.69352539 29.85717773 63.11352539 C31.9344536 63.34439777 31.9344536 63.34439777 33.23217773 61.79321289 C33.76842773 61.19766602 34.30467773 60.60211914 34.85717773 59.98852539 C43.61060518 50.97925664 54.20944855 47.22027529 66.60717773 46.92602539 C79.45712691 47.15860366 91.59930222 51.18736375 101.17358398 60.14086914 C113.77183898 74.9021656 118.9909624 92.81506298 117.85717773 112.11352539 C116.48457634 128.81673105 111.42243757 143.19964493 99.10717773 154.92602539 C87.00166799 164.81972294 73.07301095 167.53779598 57.85717773 166.11352539 C46.32373347 164.0999517 36.91202212 158.4819677 29.85717773 149.11352539 C29.8687793 149.78899414 29.88038086 150.46446289 29.89233398 151.16040039 C29.90135742 152.05243164 29.91038086 152.94446289 29.91967773 153.86352539 C29.9312793 154.74524414 29.94288086 155.62696289 29.95483398 156.53540039 C29.85717773 159.11352539 29.85717773 159.11352539 28.85717773 163.11352539 C18.29717773 163.11352539 7.73717773 163.11352539 -3.14282227 163.11352539 C-3.89228336 159.3662199 -4.2342458 156.74796468 -4.14282227 153.05102539 C-4.05619481 149.54011442 -4.05619481 149.54011442 -4.70532227 146.11743164 C-5.14282227 144.11352539 -5.14282227 144.11352539 -4.6784668 142.02734375 C-3.97087062 138.17813665 -4.0000163 134.38727156 -4.01000977 130.48852539 C-4.00857468 129.25175049 -4.00857468 129.25175049 -4.0071106 127.98999023 C-4.00643203 126.25187097 -4.00826372 124.51374912 -4.01245117 122.77563477 C-4.01780399 120.1225818 -4.01249522 117.46969812 -4.00610352 114.81665039 C-4.00676435 113.12394169 -4.00804564 111.43123309 -4.01000977 109.73852539 C-4.00798553 108.94881348 -4.0059613 108.15910156 -4.00387573 107.34545898 C-4.02030837 103.46546576 -4.27493902 99.8936977 -5.14282227 96.11352539 C-4.98657227 93.90258789 -4.98657227 93.90258789 -4.64282227 91.73852539 C-4.10980746 87.6430825 -4.49640454 84.20750433 -5.14282227 80.11352539 C-5.34580423 75.27202953 -5.40462543 70.80860693 -4.14282227 66.11352539 C-3.82283 61.31364141 -4.69617907 57.63428536 -6.14282227 53.11352539 C-5.48282227 53.11352539 -4.82282227 53.11352539 -4.14282227 53.11352539 C-4.14504288 52.46428604 -4.14726349 51.81504669 -4.14955139 51.14613342 C-4.17160228 44.41464791 -4.18672804 37.68317258 -4.19775391 30.95166016 C-4.2027959 28.43635644 -4.20962929 25.92105567 -4.21826172 23.40576172 C-4.23033321 19.79922764 -4.23605175 16.19273217 -4.24047852 12.58618164 C-4.2456398 11.4539064 -4.25080109 10.32163116 -4.25611877 9.15504456 C-4.25619431 8.11404099 -4.25626984 7.07303741 -4.25634766 6.00048828 C-4.25856827 5.07893448 -4.26078888 4.15738068 -4.26307678 3.207901 C-4.06677878 -0.21086241 -3.50813223 0.12672116 0 0 Z M35.48217773 85.11352539 C29.99704197 92.25043499 27.82641717 102.26484243 28.85717773 111.11352539 C28.9512793 111.93594727 29.04538086 112.75836914 29.14233398 113.60571289 C30.51213092 122.35645451 34.3016693 128.21995931 41.01342773 133.88696289 C47.54913229 138.23486804 55.95376872 138.88304247 63.54467773 137.48852539 C70.44483639 135.59098176 75.24451789 132.56630889 79.23217773 126.55102539 C84.45778663 116.95413058 85.05502255 105.88000292 82.10327148 95.44946289 C79.48042426 88.18450531 75.8412726 82.41004367 68.91967773 78.67602539 C57.24680347 74.140956 44.34854261 76.29116233 35.48217773 85.11352539 Z " fill="#000000" transform="translate(1239.142822265625,92.886474609375)"/>
<path d="M0 0 C1.09860603 -0.0049926 1.09860603 -0.0049926 2.21940613 -0.01008606 C3.76678848 -0.01513913 5.31418168 -0.01749489 6.86157227 -0.01733398 C9.21193728 -0.01951406 11.56182771 -0.03766886 13.91210938 -0.05664062 C15.42057132 -0.05957629 16.92903549 -0.06155993 18.4375 -0.0625 C19.13253128 -0.06968552 19.82756256 -0.07687103 20.5436554 -0.08427429 C26.30526491 -0.05770867 31.22884018 0.42727985 35.83496094 4.08984375 C38.25654918 8.79857056 37.86436358 13.2041155 37.74609375 18.41796875 C37.74109025 20.6575499 37.73721854 22.89713382 37.734375 25.13671875 C37.7073157 28.65934826 37.66774531 32.18091018 37.60693359 35.703125 C37.55603787 39.10885762 37.55425444 42.51192172 37.55859375 45.91796875 C37.52662903 46.97016602 37.49466431 48.02236328 37.46173096 49.10644531 C37.37604904 54.52158146 37.37604904 54.52158146 40.13174438 58.90731812 C42.1829147 60.20919572 44.18728011 61.2126745 46.41796875 62.16796875 C47.6070947 62.79807049 48.79227465 63.43569696 49.97265625 64.08203125 C52.20066639 65.23011177 54.4298502 66.37591724 56.66015625 67.51953125 C59.41796875 69.16796875 59.41796875 69.16796875 61.41796875 72.16796875 C61.76403383 74.72283181 61.98477578 77.16284592 62.10546875 79.73046875 C62.16190552 80.88434082 62.16190552 80.88434082 62.21948242 82.06152344 C62.50193633 89.34983043 62.42097422 96.6281977 62.23046875 103.91796875 C62.21266357 105.03631104 62.1948584 106.15465332 62.17651367 107.30688477 C61.79199348 118.16813917 56.81043155 123.06464268 49.54296875 130.60546875 C45.13062886 135.21018339 40.76959963 139.81673769 36.66455078 144.69970703 C35.01328843 146.64461338 33.32174677 148.46816694 31.41796875 150.16796875 C30.75796875 150.16796875 30.09796875 150.16796875 29.41796875 150.16796875 C29.17046875 150.76222656 28.92296875 151.35648438 28.66796875 151.96875 C27.22733992 154.50335634 25.77829155 155.6676644 23.41796875 157.35546875 C22.36609375 158.11923828 22.36609375 158.11923828 21.29296875 158.8984375 C17.8156943 161.25284208 15.42894685 161.38867234 11.23046875 161.48046875 C9.56951172 161.53654297 9.56951172 161.53654297 7.875 161.59375 C-0.67473997 160.54073118 -5.84933379 154.30456412 -11.58203125 148.41796875 C-12.3503125 147.64453125 -13.11859375 146.87109375 -13.91015625 146.07421875 C-18.10436572 141.82294521 -22.1123042 137.46435575 -26.00976562 132.94091797 C-28.91253583 129.6676389 -32.15196594 126.74012598 -35.34765625 123.7578125 C-40.39819841 117.90377499 -41.03534854 112.3489619 -40.98046875 104.91015625 C-40.98333893 104.04407745 -40.98620911 103.17799866 -40.98916626 102.28567505 C-40.99119749 100.46534568 -40.98573385 98.644994 -40.97314453 96.82470703 C-40.9570378 94.04410013 -40.97304505 91.26493795 -40.9921875 88.484375 C-40.99020567 86.70963222 -40.98636323 84.93489034 -40.98046875 83.16015625 C-40.98654144 82.33297089 -40.99261414 81.50578552 -40.99887085 80.65353394 C-40.94258943 76.02401273 -40.65394639 72.87379834 -37.58203125 69.16796875 C-35.51318359 67.63818359 -35.51318359 67.63818359 -33.16796875 66.37890625 C-32.32492187 65.91226563 -31.481875 65.445625 -30.61328125 64.96484375 C-29.73671875 64.495625 -28.86015625 64.02640625 -27.95703125 63.54296875 C-26.21028729 62.60084737 -24.46784465 61.65069355 -22.73046875 60.69140625 C-21.95880371 60.27810059 -21.18713867 59.86479492 -20.39208984 59.43896484 C-18.26726969 58.21480033 -18.26726969 58.21480033 -17.58203125 55.16796875 C-17.50867053 52.50369063 -17.49030493 49.86642664 -17.51953125 47.203125 C-17.52331787 46.41457626 -17.52710449 45.62602753 -17.53100586 44.81358337 C-17.5472696 41.44784044 -17.5750829 38.08222025 -17.60253906 34.71655273 C-17.80289221 7.8507771 -17.80289221 7.8507771 -14.26953125 2.98046875 C-9.67963647 -0.11504169 -5.41642327 0.00859719 0 0 Z " fill="#0183FE" transform="translate(318.58203125,183.83203125)"/>
<path d="M0 0 C14.70523254 13.64156292 18.42142483 27.58304606 19.16015625 47.00390625 C19.21112059 49.33668294 19.22552337 51.67148871 19.16015625 54.00390625 C17.15273153 56.01133097 13.08925846 55.18895902 10.33569336 55.20922852 C9.51624741 55.21912811 8.69680145 55.22902771 7.8525238 55.23922729 C5.13087908 55.2709368 2.40921686 55.29563687 -0.3125 55.3203125 C-2.19437628 55.34087388 -4.07624786 55.36187013 -5.95811462 55.38328552 C-10.92127686 55.43859051 -15.88448135 55.48796248 -20.84771729 55.53613281 C-25.90828226 55.58628647 -30.96878555 55.64200449 -36.02929688 55.69726562 C-45.9660932 55.8049502 -55.90294298 55.90637214 -65.83984375 56.00390625 C-65.71499004 57.43821506 -65.58025661 58.87166594 -65.44140625 60.3046875 C-65.36744629 61.10302002 -65.29348633 61.90135254 -65.21728516 62.72387695 C-64.162864 69.0933719 -58.8174589 73.3889414 -53.83984375 77.00390625 C-45.50025313 81.27540388 -34.84534657 80.97732497 -25.9375 78.68359375 C-22.51483209 77.57457286 -19.58972771 76.36118629 -16.83984375 74.00390625 C-16.2345485 72.64161099 -15.65410643 71.26810623 -15.09375 69.88671875 C-13.79833984 67.73681641 -13.79833984 67.73681641 -11.83984375 66.00390625 C-6.72461933 64.96748823 -1.70394944 65.25089405 3.47265625 65.50390625 C4.89508274 65.54406126 6.3176175 65.58055861 7.74023438 65.61328125 C11.2158002 65.7011819 14.68729207 65.83906012 18.16015625 66.00390625 C20.05892407 72.30022375 16.76602461 78.27223381 14.16015625 84.00390625 C7.08466177 95.5150144 -4.08457076 102.18739323 -17.01953125 105.57470703 C-37.34621618 110.12381912 -59.95616873 108.02176977 -77.83984375 97.00390625 C-80.44382066 95.13188196 -82.55953456 93.28421544 -84.83984375 91.00390625 C-84.83984375 90.34390625 -84.83984375 89.68390625 -84.83984375 89.00390625 C-85.49984375 89.00390625 -86.15984375 89.00390625 -86.83984375 89.00390625 C-100.14087114 74.46323651 -100.55608245 55.56161343 -100.0234375 37.046875 C-99.67331136 31.24372044 -98.25238459 26.30671879 -95.83984375 21.00390625 C-95.50082031 20.14539063 -95.16179688 19.286875 -94.8125 18.40234375 C-90.05398619 7.46284225 -81.46774805 -0.81667203 -70.83984375 -5.99609375 C-70.10765625 -6.3725 -69.37546875 -6.74890625 -68.62109375 -7.13671875 C-47.61297953 -16.7774287 -17.98718073 -15.11445495 0 0 Z M-62.83984375 21.00390625 C-64.51674848 23.55749065 -65.9911762 26.05990777 -66.83984375 29.00390625 C-66.50984375 30.32390625 -66.17984375 31.64390625 -65.83984375 33.00390625 C-48.34984375 33.00390625 -30.85984375 33.00390625 -12.83984375 33.00390625 C-15.44076644 24.33416395 -17.04077129 19.34762675 -24.67578125 14.9453125 C-37.44141324 9.11994768 -52.99227742 10.68740819 -62.83984375 21.00390625 Z " fill="#000000" transform="translate(929.83984375,151.99609375)"/>
<path d="M0 0 C1.19431641 0.04705078 2.38863281 0.09410156 3.61914062 0.14257812 C5.46862305 0.23249023 5.46862305 0.23249023 7.35546875 0.32421875 C9.23395508 0.39672852 9.23395508 0.39672852 11.15039062 0.47070312 C20.39836664 0.86711664 20.39836664 0.86711664 21.54296875 2.01171875 C21.63861998 3.47920835 21.66485184 4.95128759 21.66322327 6.42189026 C21.66528526 7.85015137 21.66528526 7.85015137 21.66738892 9.30726624 C21.661996 10.8868235 21.661996 10.8868235 21.65649414 12.49829102 C21.65664017 13.60059052 21.65678619 14.70289001 21.65693665 15.83859253 C21.65623696 19.50178967 21.64844199 23.16493669 21.640625 26.828125 C21.63876102 29.36018343 21.63733702 31.89224223 21.63633728 34.42430115 C21.63290221 40.42020124 21.62501144 46.41607964 21.61498779 52.41197103 C21.60382552 59.23652933 21.59831592 66.06108847 21.59329236 72.88565361 C21.58282879 86.92768723 21.56448376 100.96969794 21.54296875 115.01171875 C11.64296875 115.01171875 1.74296875 115.01171875 -8.45703125 115.01171875 C-9.29647303 111.65395162 -9.73391294 108.68913849 -10.01953125 105.26171875 C-10.10332031 104.276875 -10.18710938 103.29203125 -10.2734375 102.27734375 C-10.33402344 101.5296875 -10.39460938 100.78203125 -10.45703125 100.01171875 C-10.91851563 100.59179688 -11.38 101.171875 -11.85546875 101.76953125 C-18.94151152 110.25597773 -27.37381904 116.19504898 -38.45703125 118.01171875 C-52.42618849 118.95396383 -63.9073109 117.43624349 -75.01953125 108.63671875 C-80.72666344 103.37545626 -86.14695283 94.95318126 -86.640625 87.0859375 C-86.58003906 86.40144531 -86.51945312 85.71695313 -86.45703125 85.01171875 C-87.11703125 84.68171875 -87.77703125 84.35171875 -88.45703125 84.01171875 C-88.45703125 56.62171875 -88.45703125 29.23171875 -88.45703125 1.01171875 C-77.23703125 1.01171875 -66.01703125 1.01171875 -54.45703125 1.01171875 C-53.45703125 2.01171875 -53.45703125 2.01171875 -53.34350586 4.18824768 C-53.34874268 5.15036667 -53.35397949 6.11248566 -53.359375 7.10375977 C-53.36267822 8.19322403 -53.36598145 9.28268829 -53.36938477 10.40516663 C-53.37768311 11.59661789 -53.38598145 12.78806915 -53.39453125 14.015625 C-53.39831787 15.24143784 -53.40210449 16.46725067 -53.40600586 17.73020935 C-53.42234691 22.98904624 -53.45011383 28.2478042 -53.47753906 33.5065918 C-54.48878774 56.92805093 -54.48878774 56.92805093 -51.45703125 80.01171875 C-50.46703125 80.50671875 -50.46703125 80.50671875 -49.45703125 81.01171875 C-48.85890625 81.65109375 -48.26078125 82.29046875 -47.64453125 82.94921875 C-43.07221206 87.26026255 -38.25723795 87.39124877 -32.2421875 87.26171875 C-26.70893116 86.76504497 -22.882036 85.2150561 -18.64453125 81.63671875 C-13.18948476 75.09066297 -12.3273776 69.69092383 -12.34350586 61.27197266 C-12.34335983 60.62736084 -12.34321381 59.98274902 -12.34306335 59.31860352 C-12.34375464 57.2084607 -12.35150992 55.09840846 -12.359375 52.98828125 C-12.36124197 51.51712085 -12.36266456 50.04595983 -12.36366272 48.57479858 C-12.36746592 44.7180609 -12.37727727 40.86136137 -12.3883667 37.00463867 C-12.39862823 33.06299353 -12.40317047 29.12134217 -12.40820312 25.1796875 C-12.41890166 17.45701393 -12.43595148 9.7343717 -12.45703125 2.01171875 C-8.03508142 0.44932744 -4.70174739 -0.19782608 0 0 Z " fill="#000000" transform="translate(1204.45703125,140.98828125)"/>
<path d="M0 0 C6.24636087 5.52003984 9.17612705 13.35820769 9.87109375 21.53515625 C10.09799523 29.53009652 8.78509699 37.47622166 7.6875 45.375 C3.70834841 45.40386984 -0.27077653 45.42175406 -4.25 45.4375 C-5.95446289 45.45006836 -5.95446289 45.45006836 -7.69335938 45.46289062 C-8.77294922 45.46611328 -9.85253906 45.46933594 -10.96484375 45.47265625 C-12.46519165 45.48051147 -12.46519165 45.48051147 -13.99584961 45.48852539 C-16.3125 45.375 -16.3125 45.375 -17.3125 44.375 C-17.47081254 42.62769861 -17.58914255 40.87669941 -17.6875 39.125 C-18.05037946 34.82069134 -18.38430694 31.73699943 -21.3125 28.375 C-25.57813507 25.81016186 -29.4620805 25.85290623 -34.3125 26.375 C-38.55675459 27.71115422 -39.88263277 28.5501766 -41.94953918 32.51612854 C-43.49762506 36.38226745 -43.70967454 39.87990061 -43.74487305 44.05444336 C-43.7550647 44.78698334 -43.76525635 45.51952332 -43.77575684 46.27426147 C-43.8057074 48.67120184 -43.81512486 51.06774143 -43.82421875 53.46484375 C-43.84107881 55.13637094 -43.85923084 56.80788556 -43.87861633 58.47938538 C-43.92597854 62.86048451 -43.95587676 67.24153264 -43.98205566 71.62280273 C-44.01719156 76.88936213 -44.07416488 82.15572573 -44.12744904 87.42212677 C-44.20580133 95.40639251 -44.2565287 103.39040477 -44.3125 111.375 C-55.8625 111.375 -67.4125 111.375 -79.3125 111.375 C-80.4372294 95.62878837 -80.4372294 95.62878837 -80.41015625 88.84082031 C-80.40869598 88.10071716 -80.40723572 87.36061401 -80.4057312 86.5980835 C-80.40198709 85.02572179 -80.39593957 83.45336399 -80.38766479 81.88101959 C-80.37468415 79.39257458 -80.36833327 76.90418394 -80.36352539 74.41571045 C-80.35222566 69.1521153 -80.33292004 63.88856659 -80.3125 58.625 C-80.2888617 52.47848606 -80.26854398 46.33199628 -80.25656128 40.18544769 C-80.25008045 37.73356244 -80.23758612 35.28175463 -80.22485352 32.82989502 C-80.22122402 31.3387458 -80.21787191 29.84759587 -80.21484375 28.35644531 C-80.20960693 27.05298157 -80.20437012 25.74951782 -80.19897461 24.40655518 C-80.10032907 21.45481737 -80.10032907 21.45481737 -81.3125 19.375 C-80.9825 18.715 -80.6525 18.055 -80.3125 17.375 C-80.0802354 14.66237884 -79.89313765 11.96726874 -79.75 9.25 C-79.70681641 8.49589844 -79.66363281 7.74179688 -79.61914062 6.96484375 C-79.5130168 5.10178112 -79.41224999 3.23841476 -79.3125 1.375 C-79.9725 1.375 -80.6325 1.375 -81.3125 1.375 C-80.6525 0.055 -79.9925 -1.265 -79.3125 -2.625 C-68.4225 -2.625 -57.5325 -2.625 -46.3125 -2.625 C-45.8175 3.81 -45.8175 3.81 -45.3125 10.375 C-44.3225 9.158125 -43.3325 7.94125 -42.3125 6.6875 C-30.88154481 -6.28135478 -15.08496093 -7.40016951 0 0 Z " fill="#000000" transform="translate(817.3125,144.625)"/>
<path d="M0 0 C0 37.62 0 75.24 0 114 C-11.55 114 -23.1 114 -35 114 C-34.979375 110.968125 -34.95875 107.93625 -34.9375 104.8125 C-34.90796646 95.08516 -35.13233299 85.37598428 -35.42880249 75.65460205 C-35.84649621 61.91421541 -36.10918619 48.18455082 -36.125 34.4375 C-36.12749756 33.69118317 -36.12999512 32.94486633 -36.13256836 32.17593384 C-36.15464649 24.21754156 -36.00657232 16.35567114 -35.11669922 8.43774414 C-35.0015512 6.03240312 -35.40446668 4.306674 -36 2 C-35.67 1.34 -35.34 0.68 -35 0 C-30.33712319 -0.16748075 -25.67407963 -0.32805376 -21.01074219 -0.48217773 C-19.42376271 -0.53560756 -17.83684605 -0.59093771 -16.25 -0.64819336 C-13.97149196 -0.73007724 -11.69284678 -0.80516524 -9.4140625 -0.87890625 C-8.70255035 -0.90594131 -7.99103821 -0.93297638 -7.25796509 -0.96083069 C-2.22774341 -1.11387171 -2.22774341 -1.11387171 0 0 Z " fill="#000000" transform="translate(724,142)"/>
<path d="M0 0 C1.47583955 0.0001591 2.95168467 0.00585225 4.42749023 0.01586914 C5.20293686 0.01728409 5.97838348 0.01869904 6.77732849 0.02015686 C9.26361893 0.02577194 11.74982059 0.03832693 14.23608398 0.05102539 C15.91772331 0.05603845 17.59936405 0.06060169 19.28100586 0.06469727 C23.41192728 0.07489707 27.5426558 0.09446934 31.67358398 0.11352539 C31.67358398 9.02352539 31.67358398 17.93352539 31.67358398 27.11352539 C26.24908341 27.71624768 21.45981158 28.2380793 16.10717773 28.21118164 C14.96313477 28.20795898 13.8190918 28.20473633 12.64038086 28.20141602 C11.47571289 28.19303711 10.31104492 28.1846582 9.11108398 28.17602539 C7.91161133 28.17151367 6.71213867 28.16700195 5.47631836 28.16235352 C2.54202039 28.15066309 -0.3921705 28.13427677 -3.32641602 28.11352539 C-4.76897928 7.58275896 -4.76897928 7.58275896 -4.32641602 1.11352539 C-3.32641602 0.11352539 -3.32641602 0.11352539 0 0 Z " fill="#000000" transform="translate(693.326416015625,92.886474609375)"/>
<path d="M0 0 C3.63 0 7.26 0 11 0 C11 0.33 11 0.66 11 1 C7.37 1 3.74 1 0 1 C0 0.67 0 0.34 0 0 Z " fill="#000000" transform="translate(1011,191)"/>
<path d="M0 0 C2.31 0 4.62 0 7 0 C7 0.33 7 0.66 7 1 C4.69 1 2.38 1 0 1 C0 0.67 0 0.34 0 0 Z " fill="#000000" transform="translate(878,208)"/>
<path d="M0 0 C1.98 0 3.96 0 6 0 C6 0.33 6 0.66 6 1 C4.02 1 2.04 1 0 1 C0 0.67 0 0.34 0 0 Z " fill="#000000" transform="translate(927,208)"/>
<path d="M0 0 C1.98 0 3.96 0 6 0 C6 0.33 6 0.66 6 1 C4.02 1 2.04 1 0 1 C0 0.67 0 0.34 0 0 Z " fill="#000000" transform="translate(910,208)"/>
<path d="M0 0 C1.98 0 3.96 0 6 0 C6 0.33 6 0.66 6 1 C4.02 1 2.04 1 0 1 C0 0.67 0 0.34 0 0 Z " fill="#000000" transform="translate(1056,191)"/>
<path d="M0 0 C1.98 0 3.96 0 6 0 C6 0.33 6 0.66 6 1 C4.02 1 2.04 1 0 1 C0 0.67 0 0.34 0 0 Z " fill="#000000" transform="translate(1032,191)"/>
<path d="M0 0 C1.98 0 3.96 0 6 0 C6 0.33 6 0.66 6 1 C4.02 1 2.04 1 0 1 C0 0.67 0 0.34 0 0 Z " fill="#000000" transform="translate(583,191)"/>
<path d="M0 0 C1.65 0 3.3 0 5 0 C5 0.33 5 0.66 5 1 C3.35 1 1.7 1 0 1 C0 0.67 0 0.34 0 0 Z " fill="#000000" transform="translate(993,257)"/>
<path d="M0 0 C0.33 0 0.66 0 1 0 C1 1.65 1 3.3 1 5 C0.67 5 0.34 5 0 5 C0 3.35 0 1.7 0 0 Z " fill="#000000" transform="translate(961,217)"/>
<path d="M0 0 C1.65 0 3.3 0 5 0 C5 0.33 5 0.66 5 1 C3.35 1 1.7 1 0 1 C0 0.67 0 0.34 0 0 Z " fill="#000000" transform="translate(936,208)"/>
<path d="M0 0 C1.65 0 3.3 0 5 0 C5 0.33 5 0.66 5 1 C3.35 1 1.7 1 0 1 C0 0.67 0 0.34 0 0 Z " fill="#000000" transform="translate(920,208)"/>
<path d="M0 0 C1.65 0 3.3 0 5 0 C5 0.33 5 0.66 5 1 C3.35 1 1.7 1 0 1 C0 0.67 0 0.34 0 0 Z " fill="#000000" transform="translate(888,208)"/>
<path d="M0 0 C1.65 0 3.3 0 5 0 C5 0.33 5 0.66 5 1 C3.35 1 1.7 1 0 1 C0 0.67 0 0.34 0 0 Z " fill="#000000" transform="translate(1001,191)"/>
<path d="M0 0 C1.65 0 3.3 0 5 0 C5 0.33 5 0.66 5 1 C3.35 1 1.7 1 0 1 C0 0.67 0 0.34 0 0 Z " fill="#000000" transform="translate(616,191)"/>
<path d="M0 0 C0.99 0 1.98 0 3 0 C3 0.66 3 1.32 3 2 C2.01 2 1.02 2 0 2 C0 1.34 0 0.68 0 0 Z " fill="#000000" transform="translate(1117,139)"/>
<path d="M0 0 C1.65 0 3.3 0 5 0 C5 0.33 5 0.66 5 1 C3.35 1 1.7 1 0 1 C0 0.67 0 0.34 0 0 Z " fill="#000000" transform="translate(888,138)"/>
<path d="M0 0 C4 1 4 1 4 1 Z " fill="#000000" transform="translate(1236,257)"/>
<path d="M0 0 C1 4 1 4 1 4 Z " fill="#000000" transform="translate(961,228)"/>
<path d="M0 0 C4 1 4 1 4 1 Z " fill="#000000" transform="translate(896,208)"/>
<path d="M0 0 C4 1 4 1 4 1 Z " fill="#000000" transform="translate(871,208)"/>
<path d="M0 0 C4 1 4 1 4 1 Z " fill="#000000" transform="translate(865,208)"/>
<path d="M0 0 C0.99 0.33 1.98 0.66 3 1 C2.01 1.33 1.02 1.66 0 2 C0 1.34 0 0.68 0 0 Z " fill="#000000" transform="translate(635,191)"/>
<path d="M0 0 C4 1 4 1 4 1 Z " fill="#000000" transform="translate(623,191)"/>
<path d="M0 0 C0.66 0 1.32 0 2 0 C1.67 0.66 1.34 1.32 1 2 C0.67 1.34 0.34 0.68 0 0 Z " fill="#00AAFF" transform="translate(391,288)"/>
<path d="M0 0 C3 1 3 1 3 1 Z " fill="#000000" transform="translate(1213,257)"/>
<path d="M0 0 C3 1 3 1 3 1 Z " fill="#000000" transform="translate(1197,257)"/>
<path d="M0 0 C3 1 3 1 3 1 Z " fill="#000000" transform="translate(1101,257)"/>
<path d="M0 0 C3 1 3 1 3 1 Z " fill="#000000" transform="translate(1069,257)"/>
<path d="M0 0 C3 1 3 1 3 1 Z " fill="#000000" transform="translate(752,257)"/>
<path d="" fill="#000000" transform="translate(0,0)"/>
<path d="M0 0 C3 1 3 1 3 1 Z " fill="#000000" transform="translate(1176,226)"/>
<path d="M0 0 C0.66 0 1.32 0 2 0 C1.67 0.66 1.34 1.32 1 2 C0.67 1.34 0.34 0.68 0 0 Z " fill="#000000" transform="translate(949,203)"/>
<path d="M0 0 C3 1 3 1 3 1 Z " fill="#000000" transform="translate(1027,191)"/>
<path d="" fill="#000000" transform="translate(0,0)"/>
<path d="M0 0 C3 1 3 1 3 1 Z " fill="#000000" transform="translate(631,191)"/>
<path d="M0 0 C3 1 3 1 3 1 Z " fill="#000000" transform="translate(603,191)"/>
<path d="M0 0 C3 1 3 1 3 1 Z " fill="#000000" transform="translate(599,191)"/>
<path d="" fill="#000000" transform="translate(0,0)"/>
<path d="" fill="#000000" transform="translate(0,0)"/>
<path d="" fill="#000000" transform="translate(0,0)"/>
<path d="M0 0 C3 1 3 1 3 1 Z " fill="#000000" transform="translate(897,166)"/>
<path d="M0 0 C3 1 3 1 3 1 Z " fill="#000000" transform="translate(888,165)"/>
<path d="" fill="#000000" transform="translate(0,0)"/>
<path d="" fill="#000000" transform="translate(0,0)"/>
<path d="M0 0 C2 1 2 1 2 1 Z " fill="#000000" transform="translate(1093,257)"/>
<path d="M0 0 C2 1 2 1 2 1 Z " fill="#000000" transform="translate(1088,257)"/>
<path d="M0 0 C2 1 2 1 2 1 Z " fill="#000000" transform="translate(768,257)"/>
<path d="M0 0 C2 1 2 1 2 1 Z " fill="#000000" transform="translate(748,257)"/>
<path d="M0 0 C2 1 2 1 2 1 Z " fill="#000000" transform="translate(720,257)"/>
<path d="M0 0 C2 1 2 1 2 1 Z " fill="#000000" transform="translate(712,257)"/>
<path d="M0 0 C2 1 2 1 2 1 Z " fill="#000000" transform="translate(708,257)"/>
<path d="M0 0 C2 1 2 1 2 1 Z " fill="#000000" transform="translate(704,257)"/>
<path d="M0 0 C2 1 2 1 2 1 Z " fill="#000000" transform="translate(696,257)"/>
<path d="M0 0 C2 1 2 1 2 1 Z " fill="#000000" transform="translate(653,257)"/>
<path d="" fill="#000000" transform="translate(0,0)"/>
<path d="" fill="#000000" transform="translate(0,0)"/>
<path d="" fill="#000000" transform="translate(0,0)"/>
<path d="" fill="#000000" transform="translate(0,0)"/>
<path d="" fill="#000000" transform="translate(0,0)"/>
<path d="" fill="#000000" transform="translate(0,0)"/>
<path d="M0 0 C2 1 2 1 2 1 Z " fill="#000000" transform="translate(1116,233)"/>
<path d="" fill="#000000" transform="translate(0,0)"/>
<path d="M0 0 C2 1 2 1 2 1 Z " fill="#000000" transform="translate(1170,227)"/>
<path d="" fill="#000000" transform="translate(0,0)"/>
<path d="" fill="#000000" transform="translate(0,0)"/>
<path d="" fill="#000000" transform="translate(0,0)"/>
<path d="" fill="#000000" transform="translate(0,0)"/>
<path d="" fill="#000000" transform="translate(0,0)"/>
<path d="" fill="#000000" transform="translate(0,0)"/>
<path d="M0 0 C2 1 2 1 2 1 Z " fill="#000000" transform="translate(906,208)"/>
<path d="" fill="#000000" transform="translate(0,0)"/>
<path d="" fill="#000000" transform="translate(0,0)"/>
<path d="" fill="#000000" transform="translate(0,0)"/>
<path d="M0 0 C2 1 2 1 2 1 Z " fill="#000000" transform="translate(1052,191)"/>
<path d="M0 0 C2 1 2 1 2 1 Z " fill="#000000" transform="translate(628,191)"/>
<path d="" fill="#000000" transform="translate(0,0)"/>
<path d="" fill="#000000" transform="translate(0,0)"/>
<path d="" fill="#000000" transform="translate(0,0)"/>
<path d="M0 0 C2 1 2 1 2 1 Z " fill="#00FFFF" transform="translate(308,183)"/>
<path d="" fill="#000000" transform="translate(0,0)"/>
<path d="" fill="#000000" transform="translate(0,0)"/>
<path d="" fill="#000000" transform="translate(0,0)"/>
<path d="" fill="#000000" transform="translate(0,0)"/>
<path d="" fill="#000000" transform="translate(0,0)"/>
<path d="" fill="#000000" transform="translate(0,0)"/>
<path d="" fill="#000000" transform="translate(0,0)"/>
<path d="M0 0 C2 1 2 1 2 1 Z " fill="#000000" transform="translate(587,158)"/>
<path d="" fill="#000000" transform="translate(0,0)"/>
<path d="" fill="#000000" transform="translate(0,0)"/>
<path d="" fill="#000000" transform="translate(0,0)"/>
<path d="M0 0 C2 1 2 1 2 1 Z " fill="#000000" transform="translate(1126,140)"/>
<path d="M0 0 C2 1 2 1 2 1 Z " fill="#000000" transform="translate(768,140)"/>
<path d="" fill="#000000" transform="translate(0,0)"/>
<path d="" fill="#000000" transform="translate(0,0)"/>
<path d="" fill="#000000" transform="translate(0,0)"/>
<path d="" fill="#000000" transform="translate(0,0)"/>
<path d="M0 0 C2 1 2 1 2 1 Z " fill="#000000" transform="translate(1092,91)"/>
<path d="" fill="#000000" transform="translate(0,0)"/>
<path d="" fill="#007FFF" transform="translate(0,0)"/>
<path d="" fill="#000000" transform="translate(0,0)"/>
<path d="" fill="#00FFFF" transform="translate(0,0)"/>
<path d="" fill="#000000" transform="translate(0,0)"/>
<path d="" fill="#000000" transform="translate(0,0)"/>
<path d="" fill="#000000" transform="translate(0,0)"/>
<path d="" fill="#000000" transform="translate(0,0)"/>
<path d="" fill="#000000" transform="translate(0,0)"/>
<path d="" fill="#000000" transform="translate(0,0)"/>
<path d="" fill="#000000" transform="translate(0,0)"/>
<path d="" fill="#000000" transform="translate(0,0)"/>
<path d="" fill="#00FFFF" transform="translate(0,0)"/>
<path d="" fill="#000000" transform="translate(0,0)"/>
<path d="" fill="#000000" transform="translate(0,0)"/>
<path d="" fill="#000000" transform="translate(0,0)"/>
<path d="" fill="#000000" transform="translate(0,0)"/>
<path d="" fill="#000000" transform="translate(0,0)"/>
<path d="" fill="#000000" transform="translate(0,0)"/>
<path d="" fill="#000000" transform="translate(0,0)"/>
<path d="" fill="#000000" transform="translate(0,0)"/>
<path d="" fill="#00FFFF" transform="translate(0,0)"/>
<path d="" fill="#000000" transform="translate(0,0)"/>
<path d="" fill="#000000" transform="translate(0,0)"/>
<path d="" fill="#007FFF" transform="translate(0,0)"/>
<path d="" fill="#0099FF" transform="translate(0,0)"/>
<path d="" fill="#000000" transform="translate(0,0)"/>
<path d="" fill="#00FFFF" transform="translate(0,0)"/>
<path d="" fill="#000000" transform="translate(0,0)"/>
<path d="" fill="#000000" transform="translate(0,0)"/>
<path d="" fill="#000000" transform="translate(0,0)"/>
<path d="" fill="#0000FF" transform="translate(0,0)"/>
<path d="" fill="#000000" transform="translate(0,0)"/>
<path d="" fill="#000000" transform="translate(0,0)"/>
<path d="" fill="#000000" transform="translate(0,0)"/>
<path d="" fill="#000000" transform="translate(0,0)"/>
<path d="" fill="#000000" transform="translate(0,0)"/>
<path d="" fill="#000000" transform="translate(0,0)"/>
<path d="" fill="#000000" transform="translate(0,0)"/>
<path d="" fill="#000000" transform="translate(0,0)"/>
<path d="" fill="#000000" transform="translate(0,0)"/>
<path d="" fill="#000000" transform="translate(0,0)"/>
<path d="" fill="#000000" transform="translate(0,0)"/>
<path d="" fill="#000000" transform="translate(0,0)"/>
<path d="" fill="#000000" transform="translate(0,0)"/>
<path d="" fill="#000000" transform="translate(0,0)"/>
<path d="" fill="#000000" transform="translate(0,0)"/>
<path d="" fill="#000000" transform="translate(0,0)"/>
<path d="" fill="#000000" transform="translate(0,0)"/>
<path d="" fill="#000000" transform="translate(0,0)"/>
<path d="" fill="#000000" transform="translate(0,0)"/>
<path d="" fill="#000000" transform="translate(0,0)"/>
<path d="" fill="#00003F" transform="translate(0,0)"/>
<path d="" fill="#000000" transform="translate(0,0)"/>
<path d="" fill="#000000" transform="translate(0,0)"/>
<path d="" fill="#000000" transform="translate(0,0)"/>
<path d="" fill="#000000" transform="translate(0,0)"/>
<path d="" fill="#000000" transform="translate(0,0)"/>
<path d="" fill="#000000" transform="translate(0,0)"/>
<path d="" fill="#000000" transform="translate(0,0)"/>
<path d="" fill="#000000" transform="translate(0,0)"/>
<path d="" fill="#000000" transform="translate(0,0)"/>
<path d="" fill="#000000" transform="translate(0,0)"/>
<path d="" fill="#000000" transform="translate(0,0)"/>
<path d="" fill="#000000" transform="translate(0,0)"/>
<path d="" fill="#000000" transform="translate(0,0)"/>
<path d="" fill="#000000" transform="translate(0,0)"/>
<path d="" fill="#000000" transform="translate(0,0)"/>
<path d="" fill="#000000" transform="translate(0,0)"/>
<path d="" fill="#000000" transform="translate(0,0)"/>
<path d="" fill="#007FFF" transform="translate(0,0)"/>
<path d="" fill="#000000" transform="translate(0,0)"/>
<path d="" fill="#0000FF" transform="translate(0,0)"/>
<path d="" fill="#000000" transform="translate(0,0)"/>
<path d="" fill="#000000" transform="translate(0,0)"/>
<path d="" fill="#000000" transform="translate(0,0)"/>
<path d="" fill="#000000" transform="translate(0,0)"/>
<path d="" fill="#000000" transform="translate(0,0)"/>
<path d="" fill="#000000" transform="translate(0,0)"/>
<path d="" fill="#000000" transform="translate(0,0)"/>
<path d="" fill="#000000" transform="translate(0,0)"/>
<path d="" fill="#000000" transform="translate(0,0)"/>
<path d="" fill="#000000" transform="translate(0,0)"/>
<path d="" fill="#000000" transform="translate(0,0)"/>
<path d="" fill="#000000" transform="translate(0,0)"/>
<path d="" fill="#000000" transform="translate(0,0)"/>
<path d="" fill="#000000" transform="translate(0,0)"/>
<path d="" fill="#000000" transform="translate(0,0)"/>
<path d="" fill="#000000" transform="translate(0,0)"/>
<path d="" fill="#000000" transform="translate(0,0)"/>
<path d="" fill="#000000" transform="translate(0,0)"/>
<path d="" fill="#000000" transform="translate(0,0)"/>
<path d="" fill="#000000" transform="translate(0,0)"/>
<path d="" fill="#000000" transform="translate(0,0)"/>
<path d="" fill="#0000FF" transform="translate(0,0)"/>
<path d="" fill="#000000" transform="translate(0,0)"/>
<path d="" fill="#000000" transform="translate(0,0)"/>
<path d="" fill="#000000" transform="translate(0,0)"/>
<path d="" fill="#0000FF" transform="translate(0,0)"/>
<path d="" fill="#000000" transform="translate(0,0)"/>
<path d="" fill="#000000" transform="translate(0,0)"/>
<path d="" fill="#000000" transform="translate(0,0)"/>
<path d="" fill="#000000" transform="translate(0,0)"/>
<path d="" fill="#000000" transform="translate(0,0)"/>
<path d="" fill="#000000" transform="translate(0,0)"/>
<path d="" fill="#000000" transform="translate(0,0)"/>
<path d="" fill="#000000" transform="translate(0,0)"/>
<path d="" fill="#000000" transform="translate(0,0)"/>
<path d="" fill="#000000" transform="translate(0,0)"/>
<path d="" fill="#000000" transform="translate(0,0)"/>
<path d="" fill="#000000" transform="translate(0,0)"/>
<path d="" fill="#0000FF" transform="translate(0,0)"/>
<path d="" fill="#000000" transform="translate(0,0)"/>
<path d="" fill="#000000" transform="translate(0,0)"/>
<path d="" fill="#000000" transform="translate(0,0)"/>
<path d="" fill="#000000" transform="translate(0,0)"/>
<path d="" fill="#000000" transform="translate(0,0)"/>
<path d="" fill="#000000" transform="translate(0,0)"/>
<path d="" fill="#00FFFF" transform="translate(0,0)"/>
<path d="" fill="#000000" transform="translate(0,0)"/>
<path d="" fill="#000000" transform="translate(0,0)"/>
<path d="" fill="#000000" transform="translate(0,0)"/>
<path d="" fill="#000000" transform="translate(0,0)"/>
<path d="" fill="#000000" transform="translate(0,0)"/>
<path d="" fill="#000000" transform="translate(0,0)"/>
<path d="" fill="#000000" transform="translate(0,0)"/>
<path d="" fill="#000000" transform="translate(0,0)"/>
<path d="" fill="#000000" transform="translate(0,0)"/>
<path d="" fill="#000000" transform="translate(0,0)"/>
<path d="" fill="#000000" transform="translate(0,0)"/>
<path d="" fill="#000000" transform="translate(0,0)"/>
<path d="" fill="#000000" transform="translate(0,0)"/>
<path d="" fill="#000000" transform="translate(0,0)"/>
<path d="" fill="#000000" transform="translate(0,0)"/>
<path d="" fill="#000000" transform="translate(0,0)"/>
<path d="" fill="#000000" transform="translate(0,0)"/>
<path d="" fill="#000000" transform="translate(0,0)"/>
<path d="" fill="#000000" transform="translate(0,0)"/>
<path d="" fill="#000000" transform="translate(0,0)"/>
<path d="" fill="#000000" transform="translate(0,0)"/>
<path d="" fill="#000000" transform="translate(0,0)"/>
<path d="" fill="#000000" transform="translate(0,0)"/>
<path d="" fill="#000000" transform="translate(0,0)"/>
<path d="" fill="#000000" transform="translate(0,0)"/>
<path d="" fill="#000000" transform="translate(0,0)"/>
<path d="" fill="#000000" transform="translate(0,0)"/>
<path d="" fill="#000000" transform="translate(0,0)"/>
<path d="" fill="#000000" transform="translate(0,0)"/>
<path d="" fill="#000000" transform="translate(0,0)"/>
<path d="" fill="#000000" transform="translate(0,0)"/>
<path d="" fill="#000000" transform="translate(0,0)"/>
<path d="" fill="#000000" transform="translate(0,0)"/>
<path d="" fill="#000000" transform="translate(0,0)"/>
<path d="" fill="#000000" transform="translate(0,0)"/>
<path d="" fill="#000000" transform="translate(0,0)"/>
<path d="" fill="#000000" transform="translate(0,0)"/>
<path d="" fill="#000000" transform="translate(0,0)"/>
<path d="" fill="#0000FF" transform="translate(0,0)"/>
<path d="" fill="#000000" transform="translate(0,0)"/>
<path d="" fill="#000000" transform="translate(0,0)"/>
<path d="" fill="#00FFFF" transform="translate(0,0)"/>
<path d="" fill="#00FFFF" transform="translate(0,0)"/>
<path d="" fill="#000000" transform="translate(0,0)"/>
<path d="" fill="#000000" transform="translate(0,0)"/>
<path d="" fill="#000000" transform="translate(0,0)"/>
<path d="" fill="#000000" transform="translate(0,0)"/>
<path d="" fill="#000000" transform="translate(0,0)"/>
<path d="" fill="#000000" transform="translate(0,0)"/>
<path d="" fill="#000000" transform="translate(0,0)"/>
<path d="" fill="#000000" transform="translate(0,0)"/>
<path d="" fill="#000000" transform="translate(0,0)"/>
<path d="" fill="#000000" transform="translate(0,0)"/>
<path d="" fill="#000000" transform="translate(0,0)"/>
<path d="" fill="#000000" transform="translate(0,0)"/>
<path d="" fill="#000000" transform="translate(0,0)"/>
<path d="" fill="#000000" transform="translate(0,0)"/>
<path d="" fill="#000000" transform="translate(0,0)"/>
<path d="" fill="#000000" transform="translate(0,0)"/>
<path d="" fill="#000000" transform="translate(0,0)"/>
<path d="" fill="#000000" transform="translate(0,0)"/>
<path d="" fill="#000000" transform="translate(0,0)"/>
<path d="" fill="#000000" transform="translate(0,0)"/>
<path d="" fill="#000000" transform="translate(0,0)"/>
<path d="" fill="#000000" transform="translate(0,0)"/>
<path d="" fill="#000000" transform="translate(0,0)"/>
<path d="" fill="#000000" transform="translate(0,0)"/>
<path d="" fill="#000000" transform="translate(0,0)"/>
<path d="" fill="#000000" transform="translate(0,0)"/>
<path d="" fill="#000000" transform="translate(0,0)"/>
<path d="" fill="#000000" transform="translate(0,0)"/>
<path d="" fill="#000000" transform="translate(0,0)"/>
<path d="" fill="#000000" transform="translate(0,0)"/>
<path d="" fill="#000000" transform="translate(0,0)"/>
<path d="" fill="#000000" transform="translate(0,0)"/>
<path d="" fill="#000000" transform="translate(0,0)"/>
<path d="" fill="#000000" transform="translate(0,0)"/>
<path d="" fill="#000000" transform="translate(0,0)"/>
<path d="" fill="#000000" transform="translate(0,0)"/>
<path d="" fill="#000000" transform="translate(0,0)"/>
<path d="" fill="#00AAFF" transform="translate(0,0)"/>
<path d="" fill="#00FFFF" transform="translate(0,0)"/>
<path d="" fill="#00FFFF" transform="translate(0,0)"/>
<path d="" fill="#000000" transform="translate(0,0)"/>
<path d="" fill="#000000" transform="translate(0,0)"/>
<path d="" fill="#000000" transform="translate(0,0)"/>
<path d="" fill="#000000" transform="translate(0,0)"/>
<path d="" fill="#000000" transform="translate(0,0)"/>
<path d="" fill="#000000" transform="translate(0,0)"/>
<path d="" fill="#000000" transform="translate(0,0)"/>
<path d="" fill="#000000" transform="translate(0,0)"/>
<path d="" fill="#000000" transform="translate(0,0)"/>
<path d="" fill="#000000" transform="translate(0,0)"/>
<path d="" fill="#000000" transform="translate(0,0)"/>
<path d="" fill="#000000" transform="translate(0,0)"/>
<path d="" fill="#000000" transform="translate(0,0)"/>
<path d="" fill="#000000" transform="translate(0,0)"/>
<path d="" fill="#000000" transform="translate(0,0)"/>
<path d="" fill="#000000" transform="translate(0,0)"/>
<path d="" fill="#000000" transform="translate(0,0)"/>
<path d="" fill="#000000" transform="translate(0,0)"/>
<path d="" fill="#000000" transform="translate(0,0)"/>
<path d="" fill="#000000" transform="translate(0,0)"/>
<path d="" fill="#000000" transform="translate(0,0)"/>
<path d="" fill="#000000" transform="translate(0,0)"/>
<path d="" fill="#000000" transform="translate(0,0)"/>
<path d="" fill="#000000" transform="translate(0,0)"/>
<path d="" fill="#000000" transform="translate(0,0)"/>
<path d="" fill="#000000" transform="translate(0,0)"/>
<path d="" fill="#000000" transform="translate(0,0)"/>
<path d="" fill="#000000" transform="translate(0,0)"/>
<path d="" fill="#000000" transform="translate(0,0)"/>
<path d="" fill="#000000" transform="translate(0,0)"/>
<path d="" fill="#000000" transform="translate(0,0)"/>
<path d="" fill="#000000" transform="translate(0,0)"/>
<path d="" fill="#0000FF" transform="translate(0,0)"/>
<path d="" fill="#000000" transform="translate(0,0)"/>
<path d="" fill="#000000" transform="translate(0,0)"/>
<path d="" fill="#000000" transform="translate(0,0)"/>
<path d="" fill="#000000" transform="translate(0,0)"/>
<path d="" fill="#00FFFF" transform="translate(0,0)"/>
<path d="" fill="#000000" transform="translate(0,0)"/>
<path d="" fill="#0000FF" transform="translate(0,0)"/>
<path d="" fill="#000000" transform="translate(0,0)"/>
<path d="" fill="#000000" transform="translate(0,0)"/>
<path d="" fill="#000000" transform="translate(0,0)"/>
<path d="" fill="#000000" transform="translate(0,0)"/>
<path d="" fill="#000000" transform="translate(0,0)"/>
<path d="" fill="#000000" transform="translate(0,0)"/>
<path d="" fill="#000000" transform="translate(0,0)"/>
<path d="" fill="#000000" transform="translate(0,0)"/>
<path d="" fill="#000000" transform="translate(0,0)"/>
<path d="" fill="#000000" transform="translate(0,0)"/>
<path d="" fill="#000000" transform="translate(0,0)"/>
<path d="" fill="#000000" transform="translate(0,0)"/>
<path d="" fill="#000000" transform="translate(0,0)"/>
<path d="" fill="#000000" transform="translate(0,0)"/>
<path d="" fill="#000000" transform="translate(0,0)"/>
<path d="" fill="#000000" transform="translate(0,0)"/>
<path d="" fill="#000000" transform="translate(0,0)"/>
<path d="" fill="#007F7F" transform="translate(0,0)"/>
<path d="" fill="#000000" transform="translate(0,0)"/>
<path d="" fill="#000000" transform="translate(0,0)"/>
<path d="" fill="#0000FF" transform="translate(0,0)"/>
<path d="" fill="#000000" transform="translate(0,0)"/>
<path d="" fill="#000000" transform="translate(0,0)"/>
<path d="" fill="#0000FF" transform="translate(0,0)"/>
<path d="" fill="#000000" transform="translate(0,0)"/>
<path d="" fill="#0000FF" transform="translate(0,0)"/>
<path d="" fill="#000000" transform="translate(0,0)"/>
<path d="" fill="#007F7F" transform="translate(0,0)"/>
<path d="" fill="#000000" transform="translate(0,0)"/>
<path d="" fill="#000000" transform="translate(0,0)"/>
<path d="" fill="#000000" transform="translate(0,0)"/>
<path d="" fill="#000000" transform="translate(0,0)"/>
<path d="" fill="#000000" transform="translate(0,0)"/>
<path d="" fill="#000000" transform="translate(0,0)"/>
<path d="" fill="#007F7F" transform="translate(0,0)"/>
<path d="" fill="#000000" transform="translate(0,0)"/>
<path d="" fill="#000000" transform="translate(0,0)"/>
<path d="" fill="#000000" transform="translate(0,0)"/>
<path d="" fill="#000000" transform="translate(0,0)"/>
<path d="" fill="#000000" transform="translate(0,0)"/>
<path d="" fill="#0000FF" transform="translate(0,0)"/>
<path d="" fill="#007FFF" transform="translate(0,0)"/>
<path d="" fill="#000000" transform="translate(0,0)"/>
<path d="" fill="#000000" transform="translate(0,0)"/>
<path d="" fill="#000000" transform="translate(0,0)"/>
<path d="" fill="#000000" transform="translate(0,0)"/>
<path d="" fill="#000000" transform="translate(0,0)"/>
<path d="" fill="#000000" transform="translate(0,0)"/>
<path d="" fill="#000000" transform="translate(0,0)"/>
<path d="" fill="#000000" transform="translate(0,0)"/>
<path d="" fill="#000000" transform="translate(0,0)"/>
<path d="" fill="#000000" transform="translate(0,0)"/>
</svg>
